<mxfile host="app.diagrams.net" modified="2024-05-08T01:16:27.249Z" agent="Mozilla/5.0 (Windows NT 10.0; Win64; x64) AppleWebKit/537.36 (KHTML, like Gecko) Chrome/124.0.0.0 Safari/537.36" etag="Zg5j8Y5Xp_U7MV_wyekR" version="24.3.1" type="github">
  <diagram name="Page-1" id="2YBvvXClWsGukQMizWep">
    <mxGraphModel dx="851" dy="492" grid="1" gridSize="10" guides="1" tooltips="1" connect="1" arrows="1" fold="1" page="1" pageScale="1" pageWidth="850" pageHeight="1100" math="0" shadow="0">
      <root>
        <mxCell id="0" />
        <mxCell id="1" parent="0" />
        <mxCell id="ALdTjIP_vOwL0wFw-_Rl-1" value="화면" style="rounded=0;whiteSpace=wrap;html=1;strokeWidth=2;fontStyle=1" vertex="1" parent="1">
          <mxGeometry x="170" y="20" width="100" height="40" as="geometry" />
        </mxCell>
        <mxCell id="ALdTjIP_vOwL0wFw-_Rl-2" value="탭" style="rounded=0;whiteSpace=wrap;html=1;strokeWidth=1.2;fontStyle=1;fillColor=#dae8fc;strokeColor=#6c8ebf;" vertex="1" parent="1">
          <mxGeometry x="530" y="20" width="100" height="40" as="geometry" />
        </mxCell>
        <mxCell id="ALdTjIP_vOwL0wFw-_Rl-3" value="화면X" style="rounded=0;whiteSpace=wrap;html=1;strokeWidth=1.2;fontStyle=1;fillColor=#fff2cc;strokeColor=#d6b656;" vertex="1" parent="1">
          <mxGeometry x="650" y="20" width="100" height="40" as="geometry" />
        </mxCell>
        <mxCell id="ALdTjIP_vOwL0wFw-_Rl-4" value="중복 화면" style="rounded=0;whiteSpace=wrap;html=1;strokeWidth=1.2;fillColor=#f5f5f5;fontColor=#333333;strokeColor=#666666;fontStyle=1" vertex="1" parent="1">
          <mxGeometry x="289" y="20" width="100" height="40" as="geometry" />
        </mxCell>
        <mxCell id="ALdTjIP_vOwL0wFw-_Rl-5" value="알럿" style="rounded=0;whiteSpace=wrap;html=1;strokeWidth=2;fontStyle=1;dashed=1;dashPattern=1 1;" vertex="1" parent="1">
          <mxGeometry x="410" y="20" width="100" height="40" as="geometry" />
        </mxCell>
      </root>
    </mxGraphModel>
  </diagram>
</mxfile>
